<svg width="24" height="18" viewBox="0 0 24 18" fill="none" xmlns="http://www.w3.org/2000/svg">
<path d="M3.35159 3.67031C3.37971 3.39375 3.2719 3.11719 3.06565 2.92969L0.951587 0.379687V0H7.52346L12.6047 11.1422L17.0719 0H23.3391V0.379687L21.5297 2.11406C21.375 2.23125 21.2953 2.42812 21.3281 2.62031V15.3703C21.2953 15.5625 21.375 15.7594 21.5297 15.8766L23.2969 17.6109V17.9906H14.4047V17.6109L16.2375 15.8344C16.4156 15.6562 16.4156 15.6 16.4156 15.3281V5.025L11.3203 17.9578H10.6313L4.70627 5.025V13.6922C4.65471 14.0578 4.77659 14.4234 5.0344 14.6859L7.41565 17.5734V17.9531H0.665649V17.5781L3.0469 14.6859C3.30002 14.4234 3.41721 14.0531 3.35159 13.6922V3.67031Z" fill="white"/>
</svg>
